# xmcd
#
# Track frame offsets:
#	150
#	18433
#	33881
#	63008
#	81970
#	96822
#	112172
#	129738
#	144625
#	158037
#	173199
#
# Disc length: 2466 seconds
#
# Revision: 1
# Processed by: cddbd v1.4PL0 Copyright (c) Steve Scherf et al.
# Submitted via: EasyCDDAExtractor 5.0.6
#
DISCID=8d09a00b
DTITLE=Chet Atkins and Mark Knopfler  - Neck and Neck
DYEAR=1900
DGENRE=
TTITLE0=Poor Boy Blues
TTITLE1=Sweet Dreams
TTITLE2=There'll Be Some Changes Made
TTITLE3=Just One Time
TTITLE4=So Soft, Your Goodbye
TTITLE5=Yakety Axe
TTITLE6=Tears
TTITLE7=Tahitian Skies
TTITLE8=I'll See You In My Dreams
TTITLE9=The Next Time I'm in Town
TTITLE10=Guitar Rumba
EXTD=
EXTT0=
EXTT1=
EXTT2=
EXTT3=
EXTT4=
EXTT5=
EXTT6=
EXTT7=
EXTT8=
EXTT9=
EXTT10=
PLAYORDER=
